<svg enable-background="new 0 0 539.5 539.5" height="30" viewBox="0 0 539.5 539.5" width="30" xmlns="http://www.w3.org/2000/svg"><path d="m515.478 297.053-26.932 11.656c-20.54 8.891-54.817 15.828-102.522 20.791v-33.988h-26v-24h-40v-24.333h-51v-20h29.417v-15h-29.417v-18h29.417v-15h-47.75v-46h-15v46h-47.75v15h29.417v18h-29.418v15h29.417v20h-51v24.333h-21.167v-25.857h-15v25.857h-39.833v67.049c-8.6-.07-16.676-.146-24.116-.219-13.979-.133-42.219-.25-42.219-.25v91.086h416.854l1.044-6.266c3.008-18.045 11.442-36.754 21.994-54.629.101-.023.204-.049.305-.072l-.076-.313c10.143-17.121 22.207-33.463 33.297-47.697zm-195.455-10.541h25v9h-25zm0 24h51v20.445c-15.703 1.42-32.705 2.648-51 3.684zm-87.666-116.334h21.666v53h-21.666zm-51 68h123.666v73.255c-36.482 1.791-77.725 2.873-123.666 3.236zm-76 24.334h61v52.252c-6.87.029-13.828.047-20.899.047-14.145 0-27.573-.057-40.101-.139zm349.005 68.597c-62.364 13.951-172.159 20.379-335.145 19.645l-.068 15c8.346.037 16.526.057 24.598.057 140.108 0 239.009-5.703 300.683-17.352-7.175 13.664-12.94 27.736-16.077 41.719h-389.331v-25.059c5.301.027 11.569.08 19.168.152l.139-15c-7.651-.072-13.964-.125-19.307-.152v-21.004c7.585.039 16.814.127 27.075.227 21.81.209 48.954.469 79.36.469 160.781 0 267.865-7.646 325.46-23.316-5.673 7.857-11.298 16.107-16.555 24.614z"/><path d="m76.665 389.447c6.641.061 13.705.123 21.135.178l.111-15c-7.42-.055-14.475-.117-21.107-.178z"/><path d="m198.858 281.178h13.659v15h-13.659z"/><path d="m223.859 281.178h13.66v15h-13.66z"/><path d="m248.861 281.178h13.659v15h-13.659z"/><path d="m273.862 281.178h13.66v15h-13.66z"/><path d="m119.19 305.066h37v15h-37z"/><path d="m130.19 224.989h15v12h-15z"/><path d="m235.69 110.322h15v13.5h-15z"/></svg>